<?xml version="1.0" standalone="no"?><!DOCTYPE svg PUBLIC "-//W3C//DTD SVG 1.1//EN" "http://www.w3.org/Graphics/SVG/1.1/DTD/svg11.dtd"><svg t="1693196014459" class="icon" viewBox="0 0 1024 1024" version="1.1" xmlns="http://www.w3.org/2000/svg" p-id="12033" xmlns:xlink="http://www.w3.org/1999/xlink" width="200" height="200"><path d="M340.672 484.72a16 16 0 0 1 4.704 22.128l-100.4 154.608a92.864 92.864 0 1 0 155.776 101.168L501.152 608a16 16 0 0 1 22.144-4.704l13.408 8.704a16 16 0 0 1 4.704 22.144l-100.4 154.608a140.864 140.864 0 1 1-236.288-153.44l100.4-154.624a16 16 0 0 1 22.144-4.704z m215.84 24.528a24.688 24.688 0 1 1-26.176 41.888 24.688 24.688 0 0 1 26.176-41.888z m-61.744-61.968a24.688 24.688 0 1 1-26.176 41.888 24.688 24.688 0 0 1 26.176-41.888z m-66.56-64.048a24.688 24.688 0 1 1-26.16 41.888 24.688 24.688 0 0 1 26.176-41.888z m404.352-135.408a140.864 140.864 0 0 1-48.192 193.296l-158.016 94.944a16 16 0 0 1-21.952-5.472l-8.24-13.712a16 16 0 0 1 5.472-21.952l158.016-94.944a92.864 92.864 0 0 0-95.664-159.2l-158.016 94.928a16 16 0 0 1-21.952-5.472l-8.24-13.712a16 16 0 0 1 5.472-21.952l158.016-94.944a140.864 140.864 0 0 1 193.296 48.192z" fill="#5A626A" p-id="12034"></path></svg>